<svg xmlns="http://www.w3.org/2000/svg" viewBox="0 0 48 48"><path fill="#84bf04" d="M17.59 15.85l-1.68-1.68c-.39-.39-1.02-.39-1.41 0-.35.35-.37.89-.09 1.28-2.07.28-3.91 1.59-4.81 3.52-.23.5-.02 1.1.48 1.33.14.06.28.09.42.09.38 0 .74-.21.91-.58.6-1.28 1.8-2.16 3.17-2.37l-.08.08c-.39.39-.39 1.02 0 1.41.2.2.45.29.71.29s.51-.1.71-.29l1.68-1.68c.19-.19.29-.44.29-.71s-.11-.52-.29-.71zM22.23 24.43c-.14-.48-.6-.76-1.08-.7.76-1.95.5-4.19-.75-5.91-.33-.45-.95-.54-1.4-.22-.45.33-.54.95-.22 1.4.83 1.14 1.02 2.62.54 3.92l-.03-.12c-.15-.53-.7-.84-1.24-.68-.53.15-.84.71-.68 1.24l.66 2.28c.07.25.25.47.48.6.15.08.32.12.48.12.09 0 .19-.01.28-.04l2.28-.66c.53-.15.84-.71.68-1.24zM15.76 25.86c-1.41.12-2.77-.48-3.63-1.57l.12.03c.53.14 1.08-.17 1.23-.7.14-.53-.17-1.08-.7-1.23l-2.29-.62c-.53-.15-1.08.17-1.23.7l-.62 2.29c-.14.53.17 1.08.7 1.23.09.02.18.04.26.04.39 0 .73-.23.89-.59 1.17 1.52 3 2.43 4.92 2.43.17 0 .35 0 .52-.02.55-.05.96-.53.91-1.08s-.53-.96-1.08-.91z"/><path fill="#317302" d="M44.76,24.78l-8.57-10c-.19-.22-.47-.35-.76-.35h-7.57v-4.71c0-.55-.45-1-1-1H15.61c-.55,0-1,.45-1,1s.45,1,1,1h10.25v23.71h-9.58c-.44-1.64-1.93-2.86-3.71-2.86s-3.27,1.22-3.71,2.86h-3.86V10.71h2.61c.55,0,1-.45,1-1s-.45-1-1-1h-3.61c-.55,0-1,.45-1,1v25.71c0,.55,.45,1,1,1h4.86c.44,1.64,1.93,2.86,3.71,2.86s3.27-1.22,3.71-2.86h15.44c.44,1.64,1.93,2.86,3.71,2.86s3.27-1.22,3.71-2.86h4.86c.55,0,1-.45,1-1v-10c0-.24-.08-.47-.24-.65Zm-2.93-.35h-9.11v-3.52h6.1l3.01,3.52Zm-29.25,12.86c-1.02,0-1.86-.83-1.86-1.86s.83-1.86,1.86-1.86,1.86,.83,1.86,1.86-.83,1.86-1.86,1.86Zm22.86,0c-1.02,0-1.86-.83-1.86-1.86s.83-1.86,1.86-1.86,1.86,.83,1.86,1.86-.83,1.86-1.86,1.86Zm3.71-2.86c-.44-1.64-1.93-2.86-3.71-2.86s-3.27,1.22-3.71,2.86h-3.86V16.43h7.11l2.13,2.48h-5.38c-.55,0-1,.45-1,1v5.52c0,.55,.45,1,1,1h11.29v8h-3.86Z"/><circle cx="11.61" cy="9.71" r="1" fill="#84bf04"/></svg>